# xmcd CD database file
#
# Track frame offsets:
#	150
#	24797
#	46462
#	64637
#	90300
#	109387
#	125162
#	140325
#	159550
#
# Disc length: 2401 seconds
#
# Revision: 0
# Processed by: cddbd v1.5.1PL0 Copyright (c) Steve Scherf et al.
# Submitted via: CDex 1.51
#
DISCID=72095f09
DTITLE=子供ばんど - No Gimmick
DYEAR=1986
DGENRE=Hard Rock
TTITLE0=No Gimmick
TTITLE1=Gypsy
TTITLE2=コメット・ハンター
TTITLE3=Dear, My Friend
TTITLE4=最後のエンジェル
TTITLE5=たどりついたらいつも雨ふり
TTITLE6=Monday Moon
TTITLE7=海に還る日
TTITLE8=Rock Me
EXTD=YEAR: 1986
EXTT0=
EXTT1=
EXTT2=
EXTT3=
EXTT4=
EXTT5=
EXTT6=
EXTT7=
EXTT8=
PLAYORDER=
